<svg xmlns="http://www.w3.org/2000/svg" width="30" height="30" viewBox="0 0 30 30"><defs><style>.a{fill:#d9ddff;}.b{fill:#5f24fb;}</style></defs><rect class="a" width="30" height="30" rx="5"/><g transform="translate(2.797 3.942)"><g transform="translate(1.203)"><g transform="translate(0)"><path class="b" d="M152.6,0H140.378a1.582,1.582,0,0,0-1.58,1.58V5.288h7.19a3.026,3.026,0,0,1,3.022,3.022v7.074H152.6a1.582,1.582,0,0,0,1.58-1.58V1.58A1.582,1.582,0,0,0,152.6,0Z" transform="translate(-132.183 0)"/><path class="b" d="M15.008,140H2.783a1.582,1.582,0,0,0-1.58,1.58V153.8a1.582,1.582,0,0,0,1.58,1.58H15.008a1.582,1.582,0,0,0,1.58-1.58V141.578A1.582,1.582,0,0,0,15.008,140Z" transform="translate(-1.203 -133.267)"/></g></g></g></svg>